<mxfile host="app.diagrams.net" modified="2024-06-05T14:43:23.921Z" agent="Mozilla/5.0 (Windows NT 10.0; Win64; x64) AppleWebKit/537.36 (KHTML, like Gecko) Chrome/125.0.0.0 Safari/537.36" etag="0Ji5CTKeNyiJheQjG0p3" version="24.4.14" type="device">
  <diagram name="Seite-1" id="rmcg_aQgjtSpjyozXI4n">
    <mxGraphModel dx="875" dy="442" grid="1" gridSize="10" guides="1" tooltips="1" connect="1" arrows="1" fold="1" page="1" pageScale="1" pageWidth="1169" pageHeight="827" math="0" shadow="0">
      <root>
        <mxCell id="0" />
        <mxCell id="1" parent="0" />
        <mxCell id="VlHYgpy21l1go6Lui4qg-73" value="Legende" style="rounded=0;whiteSpace=wrap;html=1;align=left;verticalAlign=top;" parent="1" vertex="1">
          <mxGeometry x="160" y="500" width="260" height="190" as="geometry" />
        </mxCell>
        <mxCell id="VlHYgpy21l1go6Lui4qg-50" value="Zentrales Monitoring und BetriebsÃ¼berwachung" style="rounded=0;whiteSpace=wrap;html=1;align=left;verticalAlign=bottom;" parent="1" vertex="1">
          <mxGeometry x="440" y="600" width="680" height="90" as="geometry" />
        </mxCell>
        <mxCell id="VlHYgpy21l1go6Lui4qg-1" value="TI 2.0 Dienst Betreiber" style="rounded=0;whiteSpace=wrap;html=1;fillColor=#edfdec;strokeColor=#82b366;align=center;verticalAlign=top;" parent="1" vertex="1">
          <mxGeometry x="440" y="100" width="680" height="480" as="geometry" />
        </mxCell>
        <mxCell id="VlHYgpy21l1go6Lui4qg-2" value="Zero Trust Cluster" style="rounded=0;whiteSpace=wrap;html=1;align=center;verticalAlign=top;fillColor=#fff3e5;strokeColor=#d79b00;" parent="1" vertex="1">
          <mxGeometry x="460" y="130" width="410" height="370" as="geometry" />
        </mxCell>
        <mxCell id="VlHYgpy21l1go6Lui4qg-5" value="PEP" style="rounded=0;whiteSpace=wrap;html=1;fillColor=none;verticalAlign=top;strokeColor=#FFB570;dashed=1;strokeWidth=3;" parent="1" vertex="1">
          <mxGeometry x="490" y="160" width="160" height="250" as="geometry" />
        </mxCell>
        <mxCell id="VlHYgpy21l1go6Lui4qg-12" style="edgeStyle=orthogonalEdgeStyle;rounded=1;orthogonalLoop=1;jettySize=auto;html=1;entryX=0;entryY=0.5;entryDx=0;entryDy=0;curved=0;enumerate=0;startArrow=none;startFill=0;" parent="1" source="VlHYgpy21l1go6Lui4qg-3" target="VlHYgpy21l1go6Lui4qg-4" edge="1">
          <mxGeometry relative="1" as="geometry">
            <Array as="points">
              <mxPoint x="700" y="300" />
              <mxPoint x="700" y="370" />
            </Array>
          </mxGeometry>
        </mxCell>
        <mxCell id="VlHYgpy21l1go6Lui4qg-13" value="(3)" style="edgeLabel;html=1;align=center;verticalAlign=middle;resizable=0;points=[];" parent="VlHYgpy21l1go6Lui4qg-12" vertex="1" connectable="0">
          <mxGeometry x="0.1071" y="2" relative="1" as="geometry">
            <mxPoint x="-12" y="16" as="offset" />
          </mxGeometry>
        </mxCell>
        <mxCell id="VlHYgpy21l1go6Lui4qg-17" style="edgeStyle=orthogonalEdgeStyle;rounded=0;orthogonalLoop=1;jettySize=auto;html=1;entryX=0.5;entryY=0;entryDx=0;entryDy=0;" parent="1" source="VlHYgpy21l1go6Lui4qg-3" target="VlHYgpy21l1go6Lui4qg-7" edge="1">
          <mxGeometry relative="1" as="geometry" />
        </mxCell>
        <mxCell id="VlHYgpy21l1go6Lui4qg-18" value="(4b)" style="edgeLabel;html=1;align=center;verticalAlign=middle;resizable=0;points=[];" parent="VlHYgpy21l1go6Lui4qg-17" vertex="1" connectable="0">
          <mxGeometry x="-0.2333" relative="1" as="geometry">
            <mxPoint x="15" y="5" as="offset" />
          </mxGeometry>
        </mxCell>
        <mxCell id="VlHYgpy21l1go6Lui4qg-19" value="" style="edgeStyle=orthogonalEdgeStyle;rounded=0;orthogonalLoop=1;jettySize=auto;html=1;" parent="1" source="VlHYgpy21l1go6Lui4qg-3" target="VlHYgpy21l1go6Lui4qg-7" edge="1">
          <mxGeometry relative="1" as="geometry" />
        </mxCell>
        <mxCell id="VlHYgpy21l1go6Lui4qg-20" value="" style="edgeStyle=orthogonalEdgeStyle;rounded=0;orthogonalLoop=1;jettySize=auto;html=1;" parent="1" source="VlHYgpy21l1go6Lui4qg-3" target="VlHYgpy21l1go6Lui4qg-7" edge="1">
          <mxGeometry relative="1" as="geometry" />
        </mxCell>
        <mxCell id="VlHYgpy21l1go6Lui4qg-42" style="edgeStyle=orthogonalEdgeStyle;rounded=0;orthogonalLoop=1;jettySize=auto;html=1;entryX=0;entryY=0.25;entryDx=0;entryDy=0;dashed=1;exitX=1;exitY=0.25;exitDx=0;exitDy=0;" parent="1" source="VlHYgpy21l1go6Lui4qg-3" target="VlHYgpy21l1go6Lui4qg-9" edge="1">
          <mxGeometry relative="1" as="geometry" />
        </mxCell>
        <mxCell id="VlHYgpy21l1go6Lui4qg-43" value="(2.3)" style="edgeLabel;html=1;align=center;verticalAlign=middle;resizable=0;points=[];" parent="VlHYgpy21l1go6Lui4qg-42" vertex="1" connectable="0">
          <mxGeometry x="-0.0008" y="3" relative="1" as="geometry">
            <mxPoint x="-10" y="-7" as="offset" />
          </mxGeometry>
        </mxCell>
        <mxCell id="VlHYgpy21l1go6Lui4qg-3" value="Authorization Server&lt;div&gt;(User Session)&lt;/div&gt;" style="rounded=0;whiteSpace=wrap;html=1;fillColor=#ffe6cc;strokeColor=#d79b00;" parent="1" vertex="1">
          <mxGeometry x="510" y="280" width="120" height="40" as="geometry" />
        </mxCell>
        <mxCell id="VlHYgpy21l1go6Lui4qg-55" style="edgeStyle=orthogonalEdgeStyle;rounded=1;orthogonalLoop=1;jettySize=auto;html=1;entryX=0.25;entryY=0;entryDx=0;entryDy=0;exitX=0;exitY=0.75;exitDx=0;exitDy=0;curved=0;" parent="1" source="VlHYgpy21l1go6Lui4qg-4" target="VlHYgpy21l1go6Lui4qg-54" edge="1">
          <mxGeometry relative="1" as="geometry">
            <Array as="points">
              <mxPoint x="700" y="380" />
            </Array>
          </mxGeometry>
        </mxCell>
        <mxCell id="VlHYgpy21l1go6Lui4qg-68" value="(11)" style="edgeLabel;html=1;align=center;verticalAlign=middle;resizable=0;points=[];" parent="VlHYgpy21l1go6Lui4qg-55" vertex="1" connectable="0">
          <mxGeometry x="0.3962" y="-1" relative="1" as="geometry">
            <mxPoint x="21" y="-2" as="offset" />
          </mxGeometry>
        </mxCell>
        <mxCell id="VlHYgpy21l1go6Lui4qg-4" value="PDP" style="rounded=0;whiteSpace=wrap;html=1;fillColor=#ffe6cc;strokeColor=#d79b00;" parent="1" vertex="1">
          <mxGeometry x="730" y="350" width="120" height="40" as="geometry" />
        </mxCell>
        <mxCell id="VlHYgpy21l1go6Lui4qg-16" style="edgeStyle=orthogonalEdgeStyle;rounded=0;orthogonalLoop=1;jettySize=auto;html=1;entryX=0;entryY=0.5;entryDx=0;entryDy=0;" parent="1" source="VlHYgpy21l1go6Lui4qg-6" target="VlHYgpy21l1go6Lui4qg-8" edge="1">
          <mxGeometry relative="1" as="geometry" />
        </mxCell>
        <mxCell id="VlHYgpy21l1go6Lui4qg-60" value="(6)" style="edgeLabel;html=1;align=center;verticalAlign=middle;resizable=0;points=[];" parent="VlHYgpy21l1go6Lui4qg-16" vertex="1" connectable="0">
          <mxGeometry x="-0.3958" y="1" relative="1" as="geometry">
            <mxPoint x="58" y="11" as="offset" />
          </mxGeometry>
        </mxCell>
        <mxCell id="VlHYgpy21l1go6Lui4qg-6" value="http Proxy" style="rounded=0;whiteSpace=wrap;html=1;fillColor=#ffe6cc;strokeColor=#d79b00;" parent="1" vertex="1">
          <mxGeometry x="510" y="200" width="120" height="40" as="geometry" />
        </mxCell>
        <mxCell id="VlHYgpy21l1go6Lui4qg-33" style="edgeStyle=orthogonalEdgeStyle;rounded=0;orthogonalLoop=1;jettySize=auto;html=1;entryX=1;entryY=0.5;entryDx=0;entryDy=0;exitX=0;exitY=0.75;exitDx=0;exitDy=0;" parent="1" source="VlHYgpy21l1go6Lui4qg-7" target="VlHYgpy21l1go6Lui4qg-31" edge="1">
          <mxGeometry relative="1" as="geometry" />
        </mxCell>
        <mxCell id="VlHYgpy21l1go6Lui4qg-34" value="(5)" style="edgeLabel;html=1;align=center;verticalAlign=middle;resizable=0;points=[];" parent="VlHYgpy21l1go6Lui4qg-33" vertex="1" connectable="0">
          <mxGeometry x="0.3771" y="1" relative="1" as="geometry">
            <mxPoint x="-19" y="9" as="offset" />
          </mxGeometry>
        </mxCell>
        <mxCell id="VlHYgpy21l1go6Lui4qg-7" value="Client Registry&lt;div&gt;(User/Device/App Data)&lt;/div&gt;" style="rounded=0;whiteSpace=wrap;html=1;fillColor=#ffe6cc;strokeColor=#d79b00;" parent="1" vertex="1">
          <mxGeometry x="510" y="360" width="120" height="40" as="geometry" />
        </mxCell>
        <mxCell id="VlHYgpy21l1go6Lui4qg-49" style="edgeStyle=orthogonalEdgeStyle;rounded=1;orthogonalLoop=1;jettySize=auto;html=1;entryX=1;entryY=0.5;entryDx=0;entryDy=0;curved=0;" parent="1" source="VlHYgpy21l1go6Lui4qg-8" target="VlHYgpy21l1go6Lui4qg-14" edge="1">
          <mxGeometry relative="1" as="geometry">
            <Array as="points">
              <mxPoint x="1110" y="220" />
              <mxPoint x="1110" y="460" />
            </Array>
          </mxGeometry>
        </mxCell>
        <mxCell id="VlHYgpy21l1go6Lui4qg-62" value="(8.1)" style="edgeLabel;html=1;align=center;verticalAlign=middle;resizable=0;points=[];" parent="VlHYgpy21l1go6Lui4qg-49" vertex="1" connectable="0">
          <mxGeometry x="0.0754" y="-1" relative="1" as="geometry">
            <mxPoint x="-19" y="20" as="offset" />
          </mxGeometry>
        </mxCell>
        <mxCell id="VlHYgpy21l1go6Lui4qg-8" value="&lt;div&gt;Resource Server&lt;/div&gt;&lt;div&gt;(Application Backend)&lt;/div&gt;" style="rounded=0;whiteSpace=wrap;html=1;fillColor=#d5e8d4;strokeColor=#82b366;" parent="1" vertex="1">
          <mxGeometry x="970" y="200" width="120" height="40" as="geometry" />
        </mxCell>
        <mxCell id="VlHYgpy21l1go6Lui4qg-82" style="edgeStyle=orthogonalEdgeStyle;rounded=0;orthogonalLoop=1;jettySize=auto;html=1;entryX=0.5;entryY=0;entryDx=0;entryDy=0;dashed=1;" parent="1" source="VlHYgpy21l1go6Lui4qg-9" target="VlHYgpy21l1go6Lui4qg-14" edge="1">
          <mxGeometry relative="1" as="geometry" />
        </mxCell>
        <mxCell id="VlHYgpy21l1go6Lui4qg-83" value="(8.2)" style="edgeLabel;html=1;align=center;verticalAlign=middle;resizable=0;points=[];" parent="VlHYgpy21l1go6Lui4qg-82" vertex="1" connectable="0">
          <mxGeometry x="-0.0867" y="1" relative="1" as="geometry">
            <mxPoint x="14" y="-5" as="offset" />
          </mxGeometry>
        </mxCell>
        <mxCell id="VlHYgpy21l1go6Lui4qg-9" value="&lt;div&gt;Application Authorization Backend&lt;/div&gt;" style="rounded=0;whiteSpace=wrap;html=1;fillColor=#d5e8d4;strokeColor=#82b366;" parent="1" vertex="1">
          <mxGeometry x="970" y="280" width="120" height="40" as="geometry" />
        </mxCell>
        <mxCell id="VlHYgpy21l1go6Lui4qg-15" style="edgeStyle=orthogonalEdgeStyle;rounded=0;orthogonalLoop=1;jettySize=auto;html=1;" parent="1" source="VlHYgpy21l1go6Lui4qg-10" target="VlHYgpy21l1go6Lui4qg-14" edge="1">
          <mxGeometry relative="1" as="geometry" />
        </mxCell>
        <mxCell id="VlHYgpy21l1go6Lui4qg-61" value="(7)" style="edgeLabel;html=1;align=center;verticalAlign=middle;resizable=0;points=[];" parent="VlHYgpy21l1go6Lui4qg-15" vertex="1" connectable="0">
          <mxGeometry x="0.1112" y="-2" relative="1" as="geometry">
            <mxPoint x="11" y="8" as="offset" />
          </mxGeometry>
        </mxCell>
        <mxCell id="VlHYgpy21l1go6Lui4qg-10" value="ZT Cluster Telemetrie Daten&amp;nbsp;&lt;span style=&quot;background-color: initial;&quot;&gt;Service&lt;/span&gt;" style="rounded=0;whiteSpace=wrap;html=1;fillColor=#ffe6cc;strokeColor=#d79b00;" parent="1" vertex="1">
          <mxGeometry x="730" y="440" width="120" height="40" as="geometry" />
        </mxCell>
        <mxCell id="VlHYgpy21l1go6Lui4qg-71" style="edgeStyle=orthogonalEdgeStyle;rounded=1;orthogonalLoop=1;jettySize=auto;html=1;entryX=0.5;entryY=0;entryDx=0;entryDy=0;curved=0;exitX=0.5;exitY=1;exitDx=0;exitDy=0;" parent="1" source="VlHYgpy21l1go6Lui4qg-11" target="VlHYgpy21l1go6Lui4qg-69" edge="1">
          <mxGeometry relative="1" as="geometry">
            <Array as="points">
              <mxPoint x="570" y="530" />
              <mxPoint x="570" y="530" />
            </Array>
          </mxGeometry>
        </mxCell>
        <mxCell id="VlHYgpy21l1go6Lui4qg-72" value="(12)" style="edgeLabel;html=1;align=center;verticalAlign=middle;resizable=0;points=[];" parent="VlHYgpy21l1go6Lui4qg-71" vertex="1" connectable="0">
          <mxGeometry x="0.4939" y="1" relative="1" as="geometry">
            <mxPoint x="14" y="-48" as="offset" />
          </mxGeometry>
        </mxCell>
        <mxCell id="VlHYgpy21l1go6Lui4qg-11" value="Cluster Management&lt;div&gt;Service&lt;/div&gt;" style="rounded=0;whiteSpace=wrap;html=1;fillColor=#ffe6cc;strokeColor=#d79b00;" parent="1" vertex="1">
          <mxGeometry x="510" y="440" width="120" height="40" as="geometry" />
        </mxCell>
        <mxCell id="VlHYgpy21l1go6Lui4qg-63" style="edgeStyle=orthogonalEdgeStyle;rounded=1;orthogonalLoop=1;jettySize=auto;html=1;entryX=0.5;entryY=0;entryDx=0;entryDy=0;curved=0;" parent="1" source="VlHYgpy21l1go6Lui4qg-14" target="VlHYgpy21l1go6Lui4qg-44" edge="1">
          <mxGeometry relative="1" as="geometry" />
        </mxCell>
        <mxCell id="VlHYgpy21l1go6Lui4qg-64" value="(9)" style="edgeLabel;html=1;align=center;verticalAlign=middle;resizable=0;points=[];" parent="VlHYgpy21l1go6Lui4qg-63" vertex="1" connectable="0">
          <mxGeometry x="0.3853" y="1" relative="1" as="geometry">
            <mxPoint x="14" y="-3" as="offset" />
          </mxGeometry>
        </mxCell>
        <mxCell id="VlHYgpy21l1go6Lui4qg-14" value="&lt;div&gt;Monitoring&lt;/div&gt;" style="rounded=0;whiteSpace=wrap;html=1;fillColor=#d5e8d4;strokeColor=#82b366;" parent="1" vertex="1">
          <mxGeometry x="970" y="440" width="120" height="40" as="geometry" />
        </mxCell>
        <mxCell id="VlHYgpy21l1go6Lui4qg-23" style="edgeStyle=orthogonalEdgeStyle;rounded=0;orthogonalLoop=1;jettySize=auto;html=1;entryX=0;entryY=0.5;entryDx=0;entryDy=0;" parent="1" source="VlHYgpy21l1go6Lui4qg-22" target="VlHYgpy21l1go6Lui4qg-3" edge="1">
          <mxGeometry relative="1" as="geometry" />
        </mxCell>
        <mxCell id="VlHYgpy21l1go6Lui4qg-24" value="(2)" style="edgeLabel;html=1;align=center;verticalAlign=middle;resizable=0;points=[];" parent="VlHYgpy21l1go6Lui4qg-23" vertex="1" connectable="0">
          <mxGeometry x="-0.4671" y="-3" relative="1" as="geometry">
            <mxPoint x="20" y="12" as="offset" />
          </mxGeometry>
        </mxCell>
        <mxCell id="VlHYgpy21l1go6Lui4qg-25" style="edgeStyle=orthogonalEdgeStyle;rounded=1;orthogonalLoop=1;jettySize=auto;html=1;entryX=0;entryY=0.5;entryDx=0;entryDy=0;curved=0;" parent="1" source="VlHYgpy21l1go6Lui4qg-22" target="VlHYgpy21l1go6Lui4qg-6" edge="1">
          <mxGeometry relative="1" as="geometry">
            <Array as="points">
              <mxPoint x="400" y="300" />
              <mxPoint x="400" y="220" />
            </Array>
          </mxGeometry>
        </mxCell>
        <mxCell id="VlHYgpy21l1go6Lui4qg-26" value="(1)" style="edgeLabel;html=1;align=center;verticalAlign=middle;resizable=0;points=[];" parent="VlHYgpy21l1go6Lui4qg-25" vertex="1" connectable="0">
          <mxGeometry x="0.1451" y="1" relative="1" as="geometry">
            <mxPoint y="11" as="offset" />
          </mxGeometry>
        </mxCell>
        <mxCell id="VlHYgpy21l1go6Lui4qg-36" style="edgeStyle=orthogonalEdgeStyle;rounded=1;orthogonalLoop=1;jettySize=auto;html=1;entryX=0.5;entryY=1;entryDx=0;entryDy=0;exitX=0.5;exitY=0;exitDx=0;exitDy=0;curved=0;" parent="1" source="VlHYgpy21l1go6Lui4qg-22" target="VlHYgpy21l1go6Lui4qg-35" edge="1">
          <mxGeometry relative="1" as="geometry" />
        </mxCell>
        <mxCell id="VlHYgpy21l1go6Lui4qg-59" value="(2.2)" style="edgeLabel;html=1;align=center;verticalAlign=middle;resizable=0;points=[];" parent="VlHYgpy21l1go6Lui4qg-36" vertex="1" connectable="0">
          <mxGeometry x="-0.1667" y="1" relative="1" as="geometry">
            <mxPoint x="19" as="offset" />
          </mxGeometry>
        </mxCell>
        <mxCell id="VlHYgpy21l1go6Lui4qg-39" style="edgeStyle=orthogonalEdgeStyle;rounded=1;orthogonalLoop=1;jettySize=auto;html=1;curved=0;" parent="1" source="VlHYgpy21l1go6Lui4qg-22" target="VlHYgpy21l1go6Lui4qg-7" edge="1">
          <mxGeometry relative="1" as="geometry">
            <Array as="points">
              <mxPoint x="400" y="300" />
              <mxPoint x="400" y="380" />
            </Array>
          </mxGeometry>
        </mxCell>
        <mxCell id="VlHYgpy21l1go6Lui4qg-40" value="(4a)" style="edgeLabel;html=1;align=center;verticalAlign=middle;resizable=0;points=[];" parent="VlHYgpy21l1go6Lui4qg-39" vertex="1" connectable="0">
          <mxGeometry x="0.2013" y="-1" relative="1" as="geometry">
            <mxPoint x="-8" y="-31" as="offset" />
          </mxGeometry>
        </mxCell>
        <mxCell id="VlHYgpy21l1go6Lui4qg-22" value="Clientsystem" style="rounded=0;whiteSpace=wrap;html=1;fillColor=#d5e8d4;strokeColor=#82b366;" parent="1" vertex="1">
          <mxGeometry x="240" y="260" width="120" height="80" as="geometry" />
        </mxCell>
        <mxCell id="VlHYgpy21l1go6Lui4qg-30" style="edgeStyle=orthogonalEdgeStyle;rounded=0;orthogonalLoop=1;jettySize=auto;html=1;entryX=0;entryY=0.5;entryDx=0;entryDy=0;" parent="1" source="VlHYgpy21l1go6Lui4qg-29" target="VlHYgpy21l1go6Lui4qg-22" edge="1">
          <mxGeometry relative="1" as="geometry" />
        </mxCell>
        <mxCell id="VlHYgpy21l1go6Lui4qg-29" value="Nutzer" style="shape=umlActor;verticalLabelPosition=bottom;verticalAlign=top;html=1;outlineConnect=0;" parent="1" vertex="1">
          <mxGeometry x="170" y="270" width="30" height="60" as="geometry" />
        </mxCell>
        <mxCell id="VlHYgpy21l1go6Lui4qg-32" style="edgeStyle=orthogonalEdgeStyle;rounded=1;orthogonalLoop=1;jettySize=auto;html=1;curved=0;" parent="1" source="VlHYgpy21l1go6Lui4qg-31" target="VlHYgpy21l1go6Lui4qg-29" edge="1">
          <mxGeometry relative="1" as="geometry" />
        </mxCell>
        <mxCell id="VlHYgpy21l1go6Lui4qg-31" value="E-Mail&lt;div&gt;Confirmation-Code/Link&lt;/div&gt;" style="rounded=0;whiteSpace=wrap;html=1;fillColor=#ffe6cc;strokeColor=#d79b00;" parent="1" vertex="1">
          <mxGeometry x="240" y="370" width="80" height="40" as="geometry" />
        </mxCell>
        <mxCell id="VlHYgpy21l1go6Lui4qg-35" value="eGK, SM-B,&lt;div&gt;gID, HBA&lt;/div&gt;" style="rounded=0;whiteSpace=wrap;html=1;fillColor=#eeeeee;strokeColor=#36393d;" parent="1" vertex="1">
          <mxGeometry x="240" y="180" width="80" height="40" as="geometry" />
        </mxCell>
        <mxCell id="VlHYgpy21l1go6Lui4qg-37" value="Federated IDP,&lt;div&gt;Smartcard IDP&lt;/div&gt;" style="rounded=0;whiteSpace=wrap;html=1;fillColor=#eeeeee;strokeColor=#36393d;" parent="1" vertex="1">
          <mxGeometry x="240" y="100" width="120" height="40" as="geometry" />
        </mxCell>
        <mxCell id="VlHYgpy21l1go6Lui4qg-38" style="edgeStyle=orthogonalEdgeStyle;rounded=0;orthogonalLoop=1;jettySize=auto;html=1;entryX=0.837;entryY=0.95;entryDx=0;entryDy=0;entryPerimeter=0;exitX=0.832;exitY=-0.004;exitDx=0;exitDy=0;exitPerimeter=0;" parent="1" source="VlHYgpy21l1go6Lui4qg-22" target="VlHYgpy21l1go6Lui4qg-37" edge="1">
          <mxGeometry relative="1" as="geometry" />
        </mxCell>
        <mxCell id="VlHYgpy21l1go6Lui4qg-41" value="(2.1)" style="edgeLabel;html=1;align=center;verticalAlign=middle;resizable=0;points=[];" parent="VlHYgpy21l1go6Lui4qg-38" vertex="1" connectable="0">
          <mxGeometry x="0.1809" y="1" relative="1" as="geometry">
            <mxPoint x="21" y="-8" as="offset" />
          </mxGeometry>
        </mxCell>
        <mxCell id="VlHYgpy21l1go6Lui4qg-56" style="edgeStyle=orthogonalEdgeStyle;rounded=0;orthogonalLoop=1;jettySize=auto;html=1;entryX=0.5;entryY=0;entryDx=0;entryDy=0;" parent="1" source="VlHYgpy21l1go6Lui4qg-44" target="VlHYgpy21l1go6Lui4qg-52" edge="1">
          <mxGeometry relative="1" as="geometry" />
        </mxCell>
        <mxCell id="VlHYgpy21l1go6Lui4qg-66" value="(9.1)" style="edgeLabel;html=1;align=center;verticalAlign=middle;resizable=0;points=[];" parent="VlHYgpy21l1go6Lui4qg-56" vertex="1" connectable="0">
          <mxGeometry x="-0.1282" y="-1" relative="1" as="geometry">
            <mxPoint x="16" as="offset" />
          </mxGeometry>
        </mxCell>
        <mxCell id="VlHYgpy21l1go6Lui4qg-44" value="&lt;div&gt;BDE Lieferung&lt;/div&gt;" style="rounded=0;whiteSpace=wrap;html=1;fillColor=#d5e8d4;strokeColor=#82b366;" parent="1" vertex="1">
          <mxGeometry x="1000" y="520" width="90" height="40" as="geometry" />
        </mxCell>
        <mxCell id="VlHYgpy21l1go6Lui4qg-58" style="edgeStyle=orthogonalEdgeStyle;rounded=0;orthogonalLoop=1;jettySize=auto;html=1;entryX=0.5;entryY=0;entryDx=0;entryDy=0;dashed=1;" parent="1" source="VlHYgpy21l1go6Lui4qg-45" target="VlHYgpy21l1go6Lui4qg-57" edge="1">
          <mxGeometry relative="1" as="geometry" />
        </mxCell>
        <mxCell id="VlHYgpy21l1go6Lui4qg-67" value="(10.2)" style="edgeLabel;html=1;align=center;verticalAlign=middle;resizable=0;points=[];" parent="VlHYgpy21l1go6Lui4qg-58" vertex="1" connectable="0">
          <mxGeometry x="0.0037" relative="1" as="geometry">
            <mxPoint x="20" y="-3" as="offset" />
          </mxGeometry>
        </mxCell>
        <mxCell id="VlHYgpy21l1go6Lui4qg-45" value="&lt;div&gt;SIEM&lt;/div&gt;" style="rounded=0;whiteSpace=wrap;html=1;fillColor=#d5e8d4;strokeColor=#82b366;" parent="1" vertex="1">
          <mxGeometry x="880" y="520" width="80" height="40" as="geometry" />
        </mxCell>
        <mxCell id="VlHYgpy21l1go6Lui4qg-48" style="edgeStyle=orthogonalEdgeStyle;rounded=1;orthogonalLoop=1;jettySize=auto;html=1;entryX=0.548;entryY=-0.007;entryDx=0;entryDy=0;entryPerimeter=0;dashed=1;curved=0;" parent="1" source="VlHYgpy21l1go6Lui4qg-14" target="VlHYgpy21l1go6Lui4qg-45" edge="1">
          <mxGeometry relative="1" as="geometry">
            <Array as="points">
              <mxPoint x="1030" y="500" />
              <mxPoint x="924" y="500" />
            </Array>
          </mxGeometry>
        </mxCell>
        <mxCell id="VlHYgpy21l1go6Lui4qg-65" value="(10.1)" style="edgeLabel;html=1;align=center;verticalAlign=middle;resizable=0;points=[];" parent="VlHYgpy21l1go6Lui4qg-48" vertex="1" connectable="0">
          <mxGeometry x="-0.0516" relative="1" as="geometry">
            <mxPoint x="-11" y="10" as="offset" />
          </mxGeometry>
        </mxCell>
        <mxCell id="VlHYgpy21l1go6Lui4qg-52" value="&lt;div&gt;BDE&lt;/div&gt;" style="rounded=0;whiteSpace=wrap;html=1;fillColor=#eeeeee;strokeColor=#36393d;" parent="1" vertex="1">
          <mxGeometry x="1000" y="625" width="90" height="40" as="geometry" />
        </mxCell>
        <mxCell id="VlHYgpy21l1go6Lui4qg-54" value="PIP und PAP Service" style="rounded=0;whiteSpace=wrap;html=1;fillColor=#ffe6cc;strokeColor=#d79b00;" parent="1" vertex="1">
          <mxGeometry x="670" y="625" width="120" height="40" as="geometry" />
        </mxCell>
        <mxCell id="VlHYgpy21l1go6Lui4qg-57" value="&lt;div&gt;TI SIEM&lt;/div&gt;" style="rounded=0;whiteSpace=wrap;html=1;fillColor=#eeeeee;strokeColor=#36393d;" parent="1" vertex="1">
          <mxGeometry x="880" y="625" width="80" height="40" as="geometry" />
        </mxCell>
        <mxCell id="VlHYgpy21l1go6Lui4qg-69" value="Zero Trust Cluster GitHub&amp;nbsp;&lt;span style=&quot;background-color: initial;&quot;&gt;Repository&lt;/span&gt;" style="rounded=0;whiteSpace=wrap;html=1;fillColor=#eeeeee;strokeColor=#36393d;" parent="1" vertex="1">
          <mxGeometry x="510" y="625" width="120" height="40" as="geometry" />
        </mxCell>
        <mxCell id="VlHYgpy21l1go6Lui4qg-74" value="" style="rounded=0;whiteSpace=wrap;html=1;fillColor=#ffe6cc;strokeColor=#d79b00;" parent="1" vertex="1">
          <mxGeometry x="180" y="540" width="80" height="20" as="geometry" />
        </mxCell>
        <mxCell id="VlHYgpy21l1go6Lui4qg-75" value="Zero Trust" style="text;html=1;align=left;verticalAlign=middle;whiteSpace=wrap;rounded=0;" parent="1" vertex="1">
          <mxGeometry x="270" y="540" width="130" height="20" as="geometry" />
        </mxCell>
        <mxCell id="VlHYgpy21l1go6Lui4qg-76" value="" style="rounded=0;whiteSpace=wrap;html=1;fillColor=#d5e8d4;strokeColor=#82b366;" parent="1" vertex="1">
          <mxGeometry x="180" y="570" width="80" height="20" as="geometry" />
        </mxCell>
        <mxCell id="VlHYgpy21l1go6Lui4qg-77" value="Anwendung" style="text;html=1;align=left;verticalAlign=middle;whiteSpace=wrap;rounded=0;" parent="1" vertex="1">
          <mxGeometry x="270" y="570" width="130" height="20" as="geometry" />
        </mxCell>
        <mxCell id="VlHYgpy21l1go6Lui4qg-78" value="" style="rounded=0;whiteSpace=wrap;html=1;fillColor=#f5f5f5;strokeColor=#666666;fontColor=#333333;" parent="1" vertex="1">
          <mxGeometry x="180" y="600" width="80" height="20" as="geometry" />
        </mxCell>
        <mxCell id="VlHYgpy21l1go6Lui4qg-79" value="Bestehende Systeme" style="text;html=1;align=left;verticalAlign=middle;whiteSpace=wrap;rounded=0;" parent="1" vertex="1">
          <mxGeometry x="270" y="600" width="130" height="20" as="geometry" />
        </mxCell>
        <mxCell id="VlHYgpy21l1go6Lui4qg-88" style="edgeStyle=orthogonalEdgeStyle;rounded=1;orthogonalLoop=1;jettySize=auto;html=1;curved=0;" parent="1" edge="1">
          <mxGeometry relative="1" as="geometry">
            <mxPoint x="180" y="644.71" as="sourcePoint" />
            <mxPoint x="220" y="644.71" as="targetPoint" />
            <Array as="points">
              <mxPoint x="200" y="645" />
              <mxPoint x="200" y="645" />
            </Array>
          </mxGeometry>
        </mxCell>
        <mxCell id="VlHYgpy21l1go6Lui4qg-90" value="Kommunikation" style="text;html=1;align=left;verticalAlign=middle;whiteSpace=wrap;rounded=0;" parent="1" vertex="1">
          <mxGeometry x="270" y="635" width="120" height="20" as="geometry" />
        </mxCell>
        <mxCell id="VlHYgpy21l1go6Lui4qg-91" style="edgeStyle=orthogonalEdgeStyle;rounded=1;orthogonalLoop=1;jettySize=auto;html=1;curved=0;dashed=1;" parent="1" edge="1">
          <mxGeometry relative="1" as="geometry">
            <mxPoint x="180" y="669.71" as="sourcePoint" />
            <mxPoint x="220" y="669.71" as="targetPoint" />
            <Array as="points">
              <mxPoint x="200" y="669.71" />
              <mxPoint x="200" y="669.71" />
            </Array>
          </mxGeometry>
        </mxCell>
        <mxCell id="VlHYgpy21l1go6Lui4qg-92" value="Kommunikation optional" style="text;html=1;align=left;verticalAlign=middle;whiteSpace=wrap;rounded=0;" parent="1" vertex="1">
          <mxGeometry x="270" y="660" width="140" height="20" as="geometry" />
        </mxCell>
      </root>
    </mxGraphModel>
  </diagram>
</mxfile>
